<svg width="69" height="69" viewBox="0 0 69 69" fill="none" xmlns="http://www.w3.org/2000/svg">
<path d="M0 51.0345V18.5479C0 8.73184 7.94636 0.785461 17.7625 0.785461H50.249C60.0651 0.785461 68.0115 8.73184 68.0115 18.5479V51.0345C68.0115 60.8506 60.0651 68.797 50.249 68.797H17.7625C8.18008 68.797 0 60.8506 0 51.0345Z" fill="black"/>
<path d="M19.8659 28.3639H26.4099V49.6321H19.8659V28.3639ZM23.1379 17.6129C25.2413 17.6129 26.8774 19.2489 26.8774 21.3524C26.8774 23.4558 25.2413 25.0918 23.1379 25.0918C21.0345 25.0918 19.3984 23.4558 19.3984 21.3524C19.3984 19.4826 21.0345 17.6129 23.1379 17.6129Z" fill="white"/>
<path d="M30.6168 28.364H36.9272V31.1686C37.862 29.5326 39.9655 27.6628 43.2375 27.6628C50.0153 27.6628 51.1839 32.1035 51.1839 37.7127V49.3985H44.6398V39.115C44.6398 36.5441 44.6398 33.5058 41.1341 33.5058C37.6283 33.5058 37.1609 36.0766 37.1609 38.8812V49.3985H30.6168V28.364Z" fill="white"/>
</svg>

