<svg width="101" height="153" viewBox="0 0 101 153" fill="none" xmlns="http://www.w3.org/2000/svg">
<path d="M50.6949 152.473L9.69965 140.284L0.564026 30.537H100.949L91.8034 140.267L50.6949 152.473Z" fill="#264DE4"/>
<path d="M83.974 133.28L91.7893 39.5105H50.7563V143.143L83.974 133.28Z" fill="#2965F1"/>
<path d="M21.5073 80.214L22.6336 93.6738H50.7564V80.214H21.5073Z" fill="#EBEBEB"/>
<path d="M19.244 52.9706L20.3864 66.4307H50.7564V52.9706H19.244Z" fill="#EBEBEB"/>
<path d="M50.7564 115.171L50.7013 115.187L36.7052 111.139L35.8105 100.404H23.1951L24.9557 121.538L50.6985 129.192L50.7564 129.175V115.171Z" fill="#EBEBEB"/>
<path d="M24.1888 0.712524H39.4098V7.52989H30.554V14.3473H39.4098V21.1646H24.1888V0.712524Z" fill="black"/>
<path d="M42.454 0.712524H57.675V6.64067H48.8192V7.8263H57.675V21.461H42.454V15.2365H51.3099V14.0508H42.454V0.712524Z" fill="black"/>
<path d="M60.7192 0.712524H75.9401V6.64067H67.0843V7.8263H75.9401V21.461H60.7192V15.2365H69.575V14.0508H60.7192V0.712524Z" fill="black"/>
<path d="M79.925 80.214L82.1937 52.9706H50.7129V66.4307H68.4212L67.2777 80.214H50.7129V93.6738H66.1879L64.7292 111.13L50.7129 115.182V129.186L76.4762 121.538L76.6652 119.264L79.6183 83.8283L79.925 80.214Z" fill="white"/>
</svg>