<svg width="102" height="152" viewBox="0 0 102 152" fill="none" xmlns="http://www.w3.org/2000/svg">
<path d="M101.035 29.7643L91.9184 139.077L50.9384 151.237L10.0713 139.094L0.964233 29.7643H101.035Z" fill="#E44D26"/>
<path d="M50.9997 141.942L84.1135 132.116L91.9044 38.7036H50.9997V141.942Z" fill="#F16529"/>
<path d="M33.2772 65.5215H50.9997V52.1125H19.5858L19.8857 55.71L22.9648 92.6611H50.9997V79.2524H34.4221L33.2772 65.5215Z" fill="#EBEBEB"/>
<path d="M36.1005 99.3657H23.5245L25.2797 120.42L50.942 128.045L50.9997 128.027V114.077L50.9448 114.092L36.9924 110.06L36.1005 99.3657Z" fill="#EBEBEB"/>
<path d="M10.2749 0.0531006H16.6414V6.7855H22.4652V0.0531006H28.8319V20.4405H22.4655V13.6136H16.6417V20.4405H10.2752V0.0531006H10.2749Z" fill="black"/>
<path d="M37.2041 6.81385H31.5993V0.0531006H49.1784V6.81385H43.5711V20.4405H37.2044V6.81385H37.2041Z" fill="black"/>
<path d="M51.9683 0.0531006H58.6068L62.6904 7.21661L66.7698 0.0531006H73.4108V20.4405H67.0705V10.3354L62.6904 17.5842H62.5809L58.1977 10.3354V20.4405H51.9683V0.0531006Z" fill="black"/>
<path d="M76.5792 0.0531006H82.9476V13.7016H91.9008V20.4405H76.5792V0.0531006Z" fill="black"/>
<path d="M50.9564 92.6611H66.383L64.9288 110.051L50.9564 114.088V128.038L76.6391 120.42L76.8275 118.154L79.7714 82.8531L80.0771 79.2524H50.9564V92.6611Z" fill="white"/>
<path d="M50.9564 65.4888V65.5215H81.217L81.4684 62.5076L82.0392 55.71L82.3388 52.1125H50.9564V65.4888Z" fill="white"/>
</svg>