<svg width="113" height="113" viewBox="0 0 113 113" fill="none" xmlns="http://www.w3.org/2000/svg">
<path d="M0 0H113V113H0V0Z" fill="#F7DF1E"/>
<path d="M29.7118 94.431L38.3594 89.1977C40.0277 92.1556 41.5453 94.6583 45.1855 94.6583C48.6749 94.6583 50.8748 93.2933 50.8748 87.9841V51.8779H61.4939V88.1342C61.4939 99.1329 55.0468 104.139 45.6407 104.139C37.1458 104.139 32.2147 99.7395 29.7117 94.4301" fill="black"/>
<path d="M67.2618 93.2931L75.9083 88.2869C78.1845 92.004 81.1427 94.7345 86.3762 94.7345C90.7762 94.7345 93.5821 92.5346 93.5821 89.5004C93.5821 85.8595 90.6998 84.5699 85.8451 82.4467L83.1911 81.3081C75.5295 78.0471 70.4472 73.9511 70.4472 65.3037C70.4472 57.3392 76.5153 51.2708 85.9972 51.2708C92.7482 51.2708 97.6027 53.6224 101.092 59.7666L92.8235 65.0759C91.003 61.8145 89.0314 60.5253 85.9974 60.5253C82.8874 60.5253 80.9151 62.4974 80.9151 65.0759C80.9151 68.2618 82.8874 69.5516 87.4381 71.5239L90.0927 72.6616C99.1192 76.5304 104.202 80.4742 104.202 89.3487C104.202 98.9067 96.6922 104.14 86.604 104.14C76.7433 104.14 70.3715 99.4374 67.262 93.2931" fill="black"/>
</svg>