<svg width="23" height="22" viewBox="0 0 23 22" fill="none" xmlns="http://www.w3.org/2000/svg">
                        <path d="M16.5825 13.203C16.2505 13.203 16.0292 13.0923 15.8079 12.871C15.3652 12.4283 15.3652 11.7643 15.8079 11.3217L18.9065 8.22303C20.2345 6.89504 20.2345 4.79238 18.9065 3.57505C17.5785 2.24706 15.4759 2.24706 14.2585 3.57505L11.1599 6.67372C10.7172 7.11638 10.0532 7.11638 9.61056 6.67372C9.1679 6.23105 9.1679 5.56707 9.61056 5.1244L12.7092 2.02574C14.9225 -0.187581 18.3532 -0.0769148 20.5665 2.02574C22.6692 4.12839 22.6692 7.6697 20.5665 9.88302L17.4679 12.9817C17.1359 13.0923 16.9145 13.203 16.5825 13.203Z" fill="#231F20"/>
                        <path d="M6.4015 21.503C4.96284 21.503 3.52415 20.9496 2.52816 19.843C0.425509 17.7403 0.425509 14.199 2.52816 11.9857L5.62683 8.88705C6.06949 8.44439 6.73344 8.44439 7.17611 8.88705C7.61877 9.32971 7.61877 9.9937 7.17611 10.4364L4.07748 13.535C2.74949 14.863 2.74949 16.9657 4.07748 18.183C5.40547 19.511 7.50813 19.511 8.72546 18.183L11.8241 15.0843C12.2668 14.6417 12.9308 14.6417 13.3734 15.0843C13.8161 15.527 13.8161 16.191 13.3734 16.6337L10.2748 19.7323C9.27881 20.9496 7.84016 21.503 6.4015 21.503Z" fill="#231F20"/>
                        <path d="M9.50023 13.9776C9.16823 13.9776 8.94688 13.8669 8.72555 13.6456C8.28289 13.2029 8.28289 12.539 8.72555 12.0963L12.5989 8.22299C13.0415 7.78033 13.7055 7.78033 14.1482 8.22299C14.5909 8.66565 14.5909 9.32964 14.1482 9.7723L10.2749 13.6456C10.0536 13.8669 9.83222 13.9776 9.50023 13.9776Z" fill="#231F20"/>
                        </svg>