<svg width="49" height="33" viewBox="0 0 49 33" fill="none" xmlns="http://www.w3.org/2000/svg">
<path d="M25.2 21.7C24.9 21.9 24.6 21.9 24.3 21.9C24 21.9 23.7 21.8 23.4 21.7L0.900002 8.4C0.600002 8.2 0.0999985 8.39996 0.0999985 8.79996V29C0.0999985 31.1 1.8 32.8 3.9 32.8H44.7C46.8 32.8 48.5 31.1 48.5 29V8.79996C48.5 8.39996 48.1 8.2 47.7 8.4L25.2 21.7Z" fill="#444444"/>
<path d="M25.3 17.5L48.2 4C48.4 3.9 48.5 3.7 48.4 3.5C48.2 1.6 46.6 0 44.6 0H3.8C1.8 0 0.2 1.5 0 3.5C0 3.7 0.0999969 3.9 0.199997 4L23.1 17.5C23.9 17.9 24.7 17.9 25.3 17.5Z" fill="#444444"/>
</svg>
